<?xml version="1.0" encoding="UTF-8" standalone="no"?><!DOCTYPE svg PUBLIC "-//W3C//DTD SVG 1.1//EN" "http://www.w3.org/Graphics/SVG/1.1/DTD/svg11.dtd"><svg width="100%" height="100%" viewBox="0 0 3000 3000" version="1.1" xmlns="http://www.w3.org/2000/svg" xmlns:xlink="http://www.w3.org/1999/xlink" xml:space="preserve" xmlns:serif="http://www.serif.com/" style="fill-rule:evenodd;clip-rule:evenodd;stroke-linecap:round;stroke-linejoin:round;stroke-miterlimit:1.5;"><rect id="logo" x="0" y="0" width="3000" height="3000" style="fill:none;"/><g id="logo1" serif:id="logo"><g><rect x="250" y="250" width="2500" height="2500" style="fill:#fff;"/><path d="M503.906,603.516l199.219,-99.61l199.219,99.61l-0,398.437l199.219,99.609l-0,199.219l199.218,-99.609l0,-199.219l199.219,-99.609l199.219,99.609l-0,398.438l197.642,-100.398l1.577,0.758l-0,-199.189l199.218,-99.609l0,-398.437l199.219,-99.61l199.219,99.61l-0,398.437l-199.219,99.609l0,199.219l-195.409,97.705l195.409,101.514l199.219,99.609l-0,398.438l-199.219,99.609l-199.219,-99.609l0,-199.219l-199.218,-99.609l-199.219,99.609l-0,597.656l-199.219,99.61l-199.219,-99.61l0,-796.875l-199.218,99.61l-199.219,-99.61l-0,398.438l-199.219,99.609l-199.219,-99.609l0,-1394.53Z"/><path d="M902.344,1400.39l199.219,99.609l-0,199.219l-199.219,-99.61l-0,-199.218Z" style="fill:none;stroke:#fff;stroke-width:12.5px;"/><path d="M1300.78,2197.27l199.219,99.609l0,199.219l-199.219,-99.61l0,-199.218Z" style="fill:none;stroke:#fff;stroke-width:12.5px;"/><path d="M1300.78,1998.05l199.219,99.609l0,199.219l-199.219,-99.609l0,-199.219Z" style="fill:none;stroke:#fff;stroke-width:12.5px;"/><path d="M1300.78,1798.83l199.219,99.609l0,199.219l-199.219,-99.609l0,-199.219Z" style="fill:none;stroke:#fff;stroke-width:12.5px;"/><path d="M1300.78,1599.61l0,-199.218l199.219,99.609l0,199.219l-199.219,-99.61Z" style="fill:none;stroke:#fff;stroke-width:12.5px;"/><path d="M1500,1500l-199.219,-99.609l0,-199.219l199.219,99.609l0,199.219Z" style="fill:none;stroke:#fff;stroke-width:12.5px;"/><path d="M1500,1300.78l-199.219,-99.609l0,-199.219l199.219,99.609l0,199.219Z" style="fill:none;stroke:#fff;stroke-width:12.5px;"/><path d="M503.906,1599.61l199.219,99.61l0,199.218l-199.219,-99.609l0,-199.219Z" style="fill:none;stroke:#fff;stroke-width:12.5px;"/><path d="M503.906,1400.39l199.219,99.609l0,199.219l-199.219,-99.61l0,-199.218Z" style="fill:none;stroke:#fff;stroke-width:12.5px;"/><path d="M703.125,902.344l-199.219,-99.61l0,-199.218l199.219,99.609l0,199.219Z" style="fill:none;stroke:#fff;stroke-width:12.5px;"/><path d="M2296.88,902.344l-199.219,-99.61l0,-199.218l199.219,99.609l0,199.219Z" style="fill:none;stroke:#fff;stroke-width:12.5px;"/><path d="M2097.66,1798.83l199.219,99.609l0,199.219l-199.219,-99.609l0,-199.219Z" style="fill:none;stroke:#fff;stroke-width:12.5px;"/><path d="M2097.66,1798.83l199.219,-99.609l0,199.218l-199.219,-99.609Z" style="fill:none;stroke:#fff;stroke-width:12.5px;"/><path d="M1898.44,1300.78l-0,-199.219l199.218,99.61l0,199.219l-199.218,-99.61Z" style="fill:none;stroke:#fff;stroke-width:12.5px;"/><path d="M2097.66,1798.83l-199.218,-99.609l199.218,-99.61l0,199.219Z" style="fill:none;stroke:#fff;stroke-width:12.5px;"/><path d="M503.906,1201.17l199.219,99.609l0,199.219l-199.219,-99.609l0,-199.219Z" style="fill:none;stroke:#fff;stroke-width:12.5px;"/><path d="M703.125,1101.56l0,199.219l-199.219,-99.609l0,-199.219l199.219,99.609Z" style="fill:none;stroke:#fff;stroke-width:12.5px;"/><path d="M902.344,1400.39l-199.219,-99.61l0,-199.219l199.219,99.61l-0,199.219Z" style="fill:none;stroke:#fff;stroke-width:12.5px;"/><path d="M703.125,1101.56l-199.219,-99.609l0,-199.219l199.219,99.61l0,199.218Z" style="fill:none;stroke:#fff;stroke-width:12.5px;"/><path d="M2296.88,1101.56l-199.219,-99.609l0,-199.219l199.219,99.61l0,199.218Z" style="fill:none;stroke:#fff;stroke-width:12.5px;"/><path d="M1300.78,1599.61l199.219,99.61l0,199.218l-199.219,-99.609l0,-199.219Z" style="fill:none;stroke:#fff;stroke-width:12.5px;"/><path d="M1101.56,1500l-0,-199.219l199.218,99.61l0,199.218l-199.218,-99.609Z" style="fill:none;stroke:#fff;stroke-width:12.5px;"/><path d="M503.906,1798.83l199.219,99.609l0,199.219l-199.219,-99.609l0,-199.219Z" style="fill:none;stroke:#fff;stroke-width:12.5px;"/><path d="M2296.88,1500l199.219,99.609l-199.219,99.61l0,-199.219Zm-199.219,-99.609l-398.437,199.218l-0,-199.218l197.642,-100.398l204.756,98.417l-0.151,0.076l195.409,101.514l-199.219,99.609l0,-199.218Zm-996.093,-99.61l199.218,-99.609l0,199.219l-199.218,-99.61Zm-0,0l-0,199.219l-199.219,-99.609l199.219,-99.61Zm-597.657,-697.265l199.219,-99.61l199.219,99.61l-199.219,99.609l-199.219,-99.609Zm199.219,498.046l199.219,-99.609l199.219,99.609l-199.219,99.61l-199.219,-99.61Zm1394.53,-498.046l199.219,-99.61l199.219,99.61l-199.219,99.609l-199.219,-99.609Zm-796.875,398.437l199.219,-99.609l199.219,99.609l-199.219,99.609l-199.219,-99.609Zm597.657,99.609l199.218,-99.609l199.219,99.609l-199.219,99.61l-199.218,-99.61Z" style="fill:none;stroke:#fff;stroke-width:12.5px;"/><path d="M2296.88,1699.22l199.219,-99.61l-0,398.438l-199.219,99.609l0,-398.437Zm-199.219,-99.61l199.219,-99.609l0,199.219l-199.219,99.609l0,-199.219Zm199.219,-498.047l0,-398.437l199.219,-99.609l-0,398.437l-199.219,99.609Zm-199.219,298.829l0,-199.219l199.219,-99.61l0,199.219l-199.219,99.61Zm0,199.218l-398.437,199.219l-0,597.656l-199.219,99.61l0,-1394.53l199.219,-99.609l-0,597.656l398.437,-199.218l0,199.218Zm-1195.31,-199.218l-0,-199.219l199.219,-99.61l-0,199.219l-199.219,99.61Zm-0,-0l-0,597.656l-199.219,99.609l0,-796.875l199.219,99.61Zm398.437,199.218l-199.218,99.61l-0,-199.219l199.218,99.609Zm-597.656,-498.047l0,-398.437l199.219,-99.609l-0,398.437l-199.219,99.609Z" style="fill:none;stroke:#fff;stroke-width:12.5px;"/></g></g></svg>